<svg width="39" height="35" viewBox="0 0 39 35" fill="none" xmlns="http://www.w3.org/2000/svg">
<path d="M11.0999 26.8832C17.4999 26.8832 23.8999 26.8832 30.2999 26.8832C31.5999 26.8832 32.5999 25.9832 32.9999 24.8832C34.7999 19.6832 36.6999 14.5832 38.4999 9.38324C39.0999 7.68324 37.4999 5.88324 35.7999 5.88324C25.5999 5.88324 15.2999 5.88324 5.09989 5.88324C3.39989 5.88324 1.79989 7.68324 2.39989 9.38324C4.39989 14.5832 6.39989 19.6832 8.39989 24.8832C9.69989 28.1832 14.9999 26.7832 13.7999 23.3832C11.7999 18.1832 9.79989 13.0832 7.79989 7.88324C6.89989 9.08324 5.99989 10.1832 5.09989 11.3832C15.2999 11.3832 25.5999 11.3832 35.7999 11.3832C34.8999 10.1832 33.9999 9.08324 33.0999 7.88324C31.2999 13.0832 29.3999 18.1832 27.5999 23.3832C28.4999 22.6832 29.3999 21.9832 30.2999 21.3832C23.8999 21.3832 17.4999 21.3832 11.0999 21.3832C7.59989 21.3832 7.49989 26.8832 11.0999 26.8832Z" fill="black"/>
<path d="M13.7999 23.3832C11.0999 16.1832 8.29993 8.98323 5.59993 1.88323C4.29993 -1.41677 -1.10007 -0.0167699 0.199931 3.28323C2.99993 10.4832 5.69993 17.6832 8.39993 24.7832C9.69993 28.1832 15.0999 26.6832 13.7999 23.3832Z" fill="black"/>
<path d="M14.8999 34.3832C17.109 34.3832 18.8999 32.5924 18.8999 30.3832C18.8999 28.1741 17.109 26.3832 14.8999 26.3832C12.6908 26.3832 10.8999 28.1741 10.8999 30.3832C10.8999 32.5924 12.6908 34.3832 14.8999 34.3832Z" fill="black"/>
<path d="M26.8999 34.3832C29.109 34.3832 30.8999 32.5924 30.8999 30.3832C30.8999 28.1741 29.109 26.3832 26.8999 26.3832C24.6908 26.3832 22.8999 28.1741 22.8999 30.3832C22.8999 32.5924 24.6908 34.3832 26.8999 34.3832Z" fill="black"/>
</svg>
