<svg width="36" height="81" viewBox="0 0 36 81" fill="none" xmlns="http://www.w3.org/2000/svg">
<path d="M18.0001 19.7578C23.0447 19.7578 27.1341 15.5049 27.1341 10.2586C27.1341 5.01225 23.0447 0.759277 18.0001 0.759277C12.9556 0.759277 8.86621 5.01225 8.86621 10.2586C8.86621 15.5049 12.9556 19.7578 18.0001 19.7578Z" fill="#4F46E5"/>
<path d="M23.5799 21.2191H12.4199C9.45614 21.093 6.56353 22.1486 4.37756 24.154C2.1916 26.1594 0.891078 28.9505 0.761719 31.9141V46.3623C0.776187 48.0666 1.31684 49.7248 2.30972 51.1101C3.30259 52.4953 4.69921 53.54 6.3085 54.1012V73.3655C6.2431 75.0787 6.84259 76.7508 7.98159 78.0322C9.12059 79.3136 10.7109 80.105 12.4199 80.2409H23.5799C25.289 80.105 26.8793 79.3136 28.0183 78.0322C29.1573 76.7508 29.7568 75.0787 29.6914 73.3655V54.1012C31.2901 53.5439 32.6793 52.5093 33.6712 51.1372C34.6632 49.7651 35.2101 48.1216 35.2381 46.4287V31.9141C35.1088 28.9505 33.8083 26.1594 31.6223 24.154C29.4363 22.1486 26.5437 21.093 23.5799 21.2191Z" fill="#4F46E5"/>
</svg>
