<svg width="95" height="81" viewBox="0 0 95 81" fill="none" xmlns="http://www.w3.org/2000/svg">
<path d="M47.4999 19.5498C52.595 19.5498 56.7253 15.2542 56.7253 9.95533C56.7253 4.65644 52.595 0.36084 47.4999 0.36084C42.4048 0.36084 38.2744 4.65644 38.2744 9.95533C38.2744 15.2542 42.4048 19.5498 47.4999 19.5498Z" fill="#4F46E5"/>
<path d="M53.1361 21.0262H41.8643C38.8708 20.8988 35.9492 21.965 33.7413 23.9905C31.5334 26.0159 30.2199 28.835 30.0892 31.8283V46.4213C30.1038 48.1427 30.6499 49.8175 31.6527 51.2167C32.6556 52.6158 34.0662 53.671 35.6916 54.2378V73.6952C35.6255 75.4255 36.231 77.1144 37.3815 78.4086C38.5319 79.7029 40.1381 80.5022 41.8643 80.6395H53.1361C54.8623 80.5022 56.4685 79.7029 57.6189 78.4086C58.7694 77.1144 59.3749 75.4255 59.3088 73.6952V54.2378C60.9236 53.6749 62.3267 52.6299 63.3286 51.2441C64.3304 49.8582 64.8829 48.1983 64.9112 46.4884V31.8283C64.7805 28.835 63.467 26.0159 61.2591 23.9905C59.0512 21.965 56.1296 20.8988 53.1361 21.0262ZM13.953 22.2339C15.0688 22.274 16.1711 21.9798 17.1185 21.3891C18.0659 20.7984 18.8152 19.9381 19.2702 18.9186C19.7253 17.899 19.8653 16.7668 19.6724 15.6671C19.4795 14.5675 18.9625 13.5505 18.1876 12.7467C17.4127 11.943 16.4153 11.3891 15.3234 11.1561C14.2316 10.9231 13.095 11.0216 12.0595 11.4391C11.024 11.8566 10.1369 12.5739 9.51192 13.4991C8.88696 14.4242 8.55267 15.515 8.55195 16.6315C8.53861 17.354 8.66775 18.0721 8.93198 18.7447C9.19622 19.4173 9.59037 20.0313 10.0919 20.5515C10.5935 21.0718 11.1926 21.4881 11.8551 21.7768C12.5176 22.0654 13.2305 22.2208 13.953 22.2339ZM17.9787 24.9176H9.92738C7.55889 24.8079 5.24294 25.6382 3.48369 27.2278C1.72444 28.8174 0.664346 31.0376 0.53418 33.4051V43.4692C0.553715 44.9414 1.05695 46.3663 1.96631 47.5242C2.87567 48.6821 4.14066 49.5088 5.56625 49.8767V62.6582C5.47298 64.0999 5.94708 65.5209 6.88729 66.6178C7.8275 67.7147 9.15932 68.4006 10.5983 68.5289H17.6097C18.3374 68.4739 19.047 68.2754 19.6978 67.9451C20.3485 67.6147 20.9275 67.1589 21.4014 66.6039C21.8753 66.049 22.2348 65.4057 22.4592 64.7113C22.6836 64.0168 22.7684 63.2849 22.7088 62.5575V49.6754C24.0494 49.2462 25.2211 48.4062 26.058 47.2743C26.8948 46.1425 27.3545 44.7761 27.3719 43.3686V33.3044C27.2164 30.9549 26.1453 28.7601 24.3888 27.1919C22.6324 25.6236 20.3308 24.807 17.9787 24.9176ZM81.0474 22.2339C82.1631 22.274 83.2654 21.9798 84.2128 21.3891C85.1602 20.7984 85.9095 19.9381 86.3645 18.9186C86.8196 17.899 86.9597 16.7668 86.7668 15.6671C86.5739 14.5675 86.0568 13.5505 85.2819 12.7467C84.507 11.943 83.5096 11.3891 82.4178 11.1561C81.3259 10.9231 80.1893 11.0216 79.1538 11.4391C78.1183 11.8566 77.2312 12.5739 76.6062 13.4991C75.9813 14.4242 75.647 15.515 75.6463 16.6315C75.6329 17.354 75.7621 18.0721 76.0263 18.7447C76.2905 19.4173 76.6847 20.0313 77.1862 20.5515C77.6878 21.0718 78.2869 21.4881 78.9494 21.7768C79.6119 22.0654 80.3248 22.2208 81.0474 22.2339ZM85.073 24.9176H77.0217C74.6532 24.8079 72.3372 25.6382 70.578 27.2278C68.8188 28.8174 67.7587 31.0376 67.6285 33.4051V43.4692C67.648 44.9414 68.1513 46.3663 69.0606 47.5242C69.97 48.6821 71.235 49.5088 72.6606 49.8767V62.6582C72.5673 64.0999 73.0414 65.5209 73.9816 66.6178C74.9218 67.7147 76.2536 68.4006 77.6926 68.5289H84.6369C85.3646 68.4739 86.0743 68.2754 86.725 67.9451C87.3757 67.6147 87.9547 67.1589 88.4286 66.6039C88.9025 66.049 89.262 65.4057 89.4864 64.7113C89.7108 64.0168 89.7956 63.2849 89.7361 62.5575V49.6754C91.0892 49.2578 92.2755 48.4229 93.1251 47.29C93.9748 46.1571 94.4442 44.7845 94.4662 43.3686V33.3044C94.3107 30.9549 93.2396 28.7601 91.4831 27.1919C89.7267 25.6236 87.4251 24.807 85.073 24.9176Z" fill="#4F46E5"/>
</svg>
