<svg width="61" height="60" viewBox="0 0 61 60" fill="none" xmlns="http://www.w3.org/2000/svg">
<path d="M32.8746 49.091C32.8746 44.1107 32.8746 39.1305 32.8746 34.1503C32.9934 34.1503 33.1121 34.1503 33.2308 34.1503C34.5369 34.1503 35.7243 34.1503 37.0304 34.1503C37.3866 34.1503 37.5053 34.0317 37.5053 33.7945C37.7428 32.253 37.8615 30.5929 38.099 29.0514V28.9329C36.3179 28.9329 34.6557 28.9329 32.8746 28.9329C32.8746 28.8143 32.8746 28.6957 32.8746 28.5771C32.8746 27.5099 32.8746 26.4427 32.8746 25.4941C32.8746 25.1384 32.8746 24.7827 32.9934 24.4269C33.2308 23.4783 33.9432 22.8854 35.0119 22.8854C35.9617 22.8854 37.0304 22.8854 37.9802 22.8854C38.099 22.8854 38.2177 22.8854 38.3364 22.8854C38.3364 22.7669 38.3364 22.6483 38.3364 22.6483C38.3364 21.2254 38.3364 19.8024 38.3364 18.3795C38.3364 18.1424 38.3364 18.0238 38.099 18.0238C36.5554 18.0238 35.1306 17.7866 33.587 17.9052C31.2123 18.0238 29.3126 18.9724 28.1252 21.1068C27.5316 22.2926 27.2941 23.5969 27.2941 25.0198C27.2941 26.2056 27.2941 27.2728 27.2941 28.4586C27.2941 28.5771 27.2941 28.6957 27.2941 28.8143C25.7505 28.8143 24.207 28.8143 22.6634 28.8143C22.6634 28.9329 22.6634 29.0514 22.6634 29.17C22.6634 30.7115 22.6634 32.253 22.6634 33.9131C22.6634 34.1503 22.7821 34.2688 23.0196 34.2688C24.3257 34.2688 25.6318 34.2688 26.9379 34.2688C27.0566 34.2688 27.1753 34.2688 27.2941 34.2688C27.2941 39.2491 27.2941 44.1107 27.2941 49.091C19.9325 48.0238 11.7398 41.3835 11.3836 31.0673C10.9086 20.1582 19.2201 11.2649 29.9063 10.9092C40.4737 10.672 49.2601 18.7352 49.735 29.2886C50.2099 40.0791 41.8985 48.1424 32.8746 49.091Z" fill="white"/>
<path d="M30.4999 4.86166C44.3919 4.86166 55.6718 16.1265 55.6718 30C55.6718 43.8735 44.3919 55.1383 30.4999 55.1383C16.6079 55.1383 5.3281 43.8735 5.3281 30C5.3281 16.1265 16.6079 4.86166 30.4999 4.86166ZM30.4999 0C13.877 0 0.459961 13.3992 0.459961 30C0.459961 46.6008 13.877 60 30.4999 60C47.1228 60 60.5399 46.6008 60.5399 30C60.5399 13.3992 47.1228 0 30.4999 0Z" fill="white"/>
</svg>
