<svg width="404" height="201" viewBox="0 0 404 201" fill="none" xmlns="http://www.w3.org/2000/svg">
<g clip-path="url(#clip0_4_281)">
<path d="M388.628 12.6011H370.902C370.158 12.6011 369.414 12.8482 368.918 13.3424C368.918 13.3424 368.918 13.3424 368.794 13.4659L360.984 21.2489L361.976 14.9484C362.224 13.5894 361.356 12.6011 359.993 12.6011H342.266C341.522 12.6011 340.778 12.8482 340.282 13.3424C340.282 13.3424 340.282 13.3424 340.158 13.4659L330.489 23.102C328.63 15.5661 323.175 11.7363 313.382 11.7363C306.192 11.7363 299.87 13.0953 294.911 17.2956C294.044 18.0369 293.176 18.9017 292.432 19.7664L281.523 30.638L284.002 14.8248C284.25 13.4659 283.383 12.4776 282.019 12.4776H264.292C263.548 12.4776 262.805 12.7246 262.309 13.2188C262.309 13.2188 262.309 13.2188 262.185 13.3424L250.656 24.8316C247.681 15.0719 240.491 12.4776 232.185 12.4776H208.26C207.516 12.4776 206.773 12.7246 206.277 13.2188C206.277 13.2188 206.277 13.2188 206.153 13.3424L186.442 32.9853L189.294 14.8248C189.542 13.4659 188.674 12.4776 187.31 12.4776H169.583C168.84 12.4776 168.22 12.7247 167.724 13.0953C167.6 13.2188 167.476 13.3424 167.352 13.4659L159.666 21.1254L160.658 14.8248C160.906 13.4659 160.038 12.4776 158.674 12.4776H140.948C140.204 12.4776 139.46 12.7246 138.964 13.2188C138.964 13.2188 138.964 13.2188 138.84 13.3424L131.03 21.1254L132.022 14.8248C132.27 13.4659 131.402 12.4776 130.039 12.4776H112.312C111.568 12.4776 110.824 12.7246 110.328 13.2188C110.328 13.2188 110.328 13.2188 110.204 13.3424L102.395 21.1254L103.386 14.8248C103.634 13.4659 102.766 12.4776 101.403 12.4776H83.676C82.9322 12.4776 82.1884 12.7246 81.6925 13.2188C81.6925 13.2188 81.6925 13.2188 81.5686 13.3424L71.8993 23.102C69.2961 14.8248 62.602 11.8599 54.1724 11.8599C45.8668 11.8599 39.2967 14.0836 34.0902 19.6429L14.9997 38.5446C14.8757 38.6681 14.6278 38.9152 14.5038 39.0387C14.008 39.5329 13.5121 40.0271 13.1402 40.6448C7.80973 47.0688 4.0908 57.3227 1.61151 72.7652C-3.34707 104.268 3.84287 114.028 21.3219 114.028C26.6523 114.028 31.6109 112.792 35.8257 109.827L25.9085 119.711C25.2887 120.081 24.9168 120.822 24.7929 121.564L12.6443 197.788C12.3964 199.147 13.2642 200.135 14.6278 200.135H46.1147C46.8585 200.135 47.6023 199.765 48.0982 199.27L53.6766 193.711L53.0567 197.788C52.8088 199.147 53.6766 200.135 55.0402 200.135H70.4118C71.1555 200.135 71.8993 199.765 72.3952 199.27L82.4363 189.264L83.3041 198.282C83.428 199.27 84.1718 200.135 85.5354 200.135H101.403C102.271 200.135 103.138 199.765 103.634 199.023L111.32 191.364L110.328 197.664C110.08 199.023 110.948 200.012 112.312 200.012H143.799C144.666 200.012 145.534 199.641 146.03 198.9L151.361 193.588L150.741 197.664C150.493 199.023 151.361 200.012 152.724 200.012H170.451C171.319 200.012 172.187 199.641 172.682 198.9L180.244 191.364C180.244 197.788 181.732 200.012 188.426 200.012H203.302C204.293 200.012 205.037 199.641 205.533 198.9L212.475 191.982C215.822 198.282 222.02 200.753 230.698 200.753C238.26 200.753 245.326 198.282 249.664 196.553C251.152 195.935 252.392 195.441 253.383 194.329L271.606 176.168L268.259 197.417C268.011 198.776 268.879 199.765 270.242 199.765H287.969C288.837 199.765 289.581 199.394 290.077 198.776L309.787 179.133C310.159 178.763 310.531 178.145 310.655 177.527L314.87 151.213L336.687 106.615L336.068 110.445C335.82 111.804 336.687 112.792 338.051 112.792H348.34L341.894 119.216C341.646 119.463 341.522 119.711 341.274 119.958L319.208 165.173C318.465 166.779 319.828 168.632 321.564 168.385L330.489 167.15C331.977 166.903 333.216 168.138 333.092 169.497L331.481 197.911C331.357 200.012 333.712 201 335.2 199.888L335.324 199.765C335.448 199.641 335.448 199.641 335.572 199.518L355.282 179.875C355.406 179.751 355.406 179.751 355.53 179.628C355.654 179.504 355.778 179.257 355.902 179.133L377.967 133.918C378.711 132.312 377.348 130.459 375.612 130.706L366.687 131.941C365.199 132.188 363.96 130.953 364.083 129.594L365.571 104.268L377.596 92.2846C377.72 92.161 377.967 92.0375 378.091 91.7904C378.339 91.4198 378.587 90.9256 378.711 90.4315L390.86 14.2071C390.86 13.5894 389.992 12.6011 388.628 12.6011ZM203.797 194.205L204.045 194.947C204.045 194.823 203.921 194.576 203.797 194.205Z" fill="#545454"/>
<path d="M21.4458 52.9988C26.4044 21.496 36.6934 11.8599 54.1724 11.8599C66.9408 11.8599 75.7422 18.7781 72.2712 40.6447C71.8993 42.8685 70.1638 43.7333 68.6763 43.7333H54.5443C52.8088 43.7333 52.313 42.3743 52.8088 39.9035C54.5443 31.7498 54.7922 29.032 51.5692 29.032C47.8502 29.032 47.9742 31.7498 44.6272 52.9988C41.2801 74.3712 40.2884 77.0891 44.0073 77.0891C47.2304 77.0891 47.7263 74.3712 48.594 66.2176C48.842 63.8703 49.7097 62.3878 51.4452 62.3878H65.7011C67.3126 62.3878 68.6763 63.2526 68.4283 65.4763C64.9573 87.343 53.9245 94.2612 41.1562 94.2612C23.6772 94.2612 16.4872 84.5015 21.4458 52.9988Z" fill="white"/>
<path d="M68.8002 91.1727L80.9487 14.9483C81.1967 13.5894 82.3123 12.6011 83.7999 12.6011H101.527C102.89 12.6011 103.758 13.5894 103.51 14.9483L99.1715 42.0037H105.246L109.585 14.9483C109.832 13.5894 110.948 12.6011 112.436 12.6011H130.163C131.526 12.6011 132.394 13.5894 132.146 14.9483L119.998 91.1727C119.75 92.5316 118.634 93.5199 117.146 93.5199H99.4194C98.0558 93.5199 97.1881 92.5316 97.436 91.1727L102.395 59.6699H96.3203L91.3617 91.1727C91.1138 92.5316 89.9981 93.5199 88.5106 93.5199H70.7837C69.42 93.5199 68.5523 92.5316 68.8002 91.1727Z" fill="white"/>
<path d="M126.072 91.1727L138.22 14.9483C138.468 13.5894 139.584 12.6011 141.071 12.6011H158.674C160.038 12.6011 160.906 13.5894 160.658 14.9483L148.509 91.1727C148.261 92.5316 147.146 93.5199 145.658 93.5199H127.931C126.692 93.5199 125.824 92.5316 126.072 91.1727Z" fill="white"/>
<path d="M154.708 91.1727L166.856 14.9483C167.104 13.5894 168.22 12.6011 169.707 12.6011H187.434C188.798 12.6011 189.666 13.5894 189.418 14.9483L179.748 75.8537H188.302C189.666 75.8537 190.533 76.842 190.285 78.201L188.178 91.0491C187.93 92.4081 186.814 93.3964 185.327 93.3964H156.691C155.327 93.5199 154.46 92.5316 154.708 91.1727Z" fill="white"/>
<path d="M193.384 91.1727L205.533 14.9483C205.781 13.5894 206.897 12.6011 208.384 12.6011H232.185C245.697 12.6011 256.11 19.5193 250.78 52.8752C245.449 86.2311 232.929 93.5199 219.293 93.5199H195.492C194.004 93.5199 193.137 92.5316 193.384 91.1727ZM220.037 77.0891C223.632 77.0891 224.376 76.1008 228.094 52.8752C231.689 30.3909 231.194 29.0319 227.723 29.0319H225.863L218.177 77.2126H220.037V77.0891Z" fill="white"/>
<path d="M249.292 91.1727L261.441 14.9483C261.689 13.5894 262.805 12.6011 264.292 12.6011H282.019C283.383 12.6011 284.25 13.5894 284.002 14.9483L271.854 91.1727C271.606 92.5316 270.49 93.5199 269.003 93.5199H251.276C249.912 93.5199 249.044 92.5316 249.292 91.1727Z" fill="white"/>
<path d="M281.027 65.4763C281.399 63.2526 283.135 62.3878 284.622 62.3878H298.134C299.87 62.3878 300.49 63.0055 299.994 65.4763C297.886 75.4831 298.506 77.0891 301.11 77.0891C304.333 77.0891 304.581 75.4831 305.696 67.8236C306.44 63.4997 304.952 60.4112 298.258 57.9404C286.234 53.4929 284.25 44.9687 285.614 36.0738C288.713 16.925 299.498 11.7363 313.134 11.7363C328.506 11.7363 333.092 21.0018 330.241 38.7916C329.869 41.0154 328.134 41.8802 326.646 41.8802H313.134C311.399 41.8802 310.779 41.386 311.275 39.5329C313.258 30.638 312.514 29.032 310.035 29.032C306.812 29.032 306.564 30.8851 305.696 36.4444C305.076 40.027 306.44 43.7333 313.134 46.2041C325.531 50.6515 327.39 57.9404 325.778 68.0707C322.183 90.3079 311.646 94.3848 297.886 94.3848C282.639 94.2612 277.928 85.4899 281.027 65.4763Z" fill="white"/>
<path d="M327.266 91.1727L339.414 14.9483C339.662 13.5894 340.778 12.6011 342.266 12.6011H359.993C361.356 12.6011 362.224 13.5894 361.976 14.9483L357.637 42.0037H363.712L368.05 14.9483C368.298 13.5894 369.414 12.6011 370.901 12.6011H388.628C389.992 12.6011 390.86 13.5894 390.612 14.9483L378.463 91.1727C378.215 92.5316 377.1 93.5199 375.612 93.5199H357.885C356.522 93.5199 355.654 92.5316 355.902 91.1727L360.86 59.6699H354.786L349.828 91.1727C349.58 92.5316 348.464 93.5199 346.976 93.5199H329.249C328.01 93.5199 327.142 92.5316 327.266 91.1727Z" fill="white"/>
<path d="M32.6026 178.022L44.7511 101.797C44.999 100.438 46.1147 99.45 47.6023 99.45H78.7174C80.081 99.45 80.9487 100.438 80.7008 101.797L78.5934 114.645C78.3455 116.004 77.2298 116.993 75.7422 116.993H64.8334L62.9739 128.853H72.3952C73.7588 128.853 74.6265 129.841 74.3786 131.2L72.2712 144.048C72.0233 145.407 70.9076 146.395 69.42 146.395H59.9987L57.3955 162.455H68.6763C70.0399 162.455 70.9076 163.444 70.6597 164.803L68.5523 177.651C68.3044 179.01 67.1887 179.998 65.7011 179.998H34.586C33.2224 180.369 32.3547 179.381 32.6026 178.022Z" fill="white"/>
<path d="M97.312 152.325L93.2212 178.022C92.9733 179.381 91.8576 180.369 90.37 180.369H75.1224C73.7588 180.369 72.891 179.381 73.139 178.022L85.2875 101.797C85.5354 100.438 86.6511 99.45 88.1387 99.45H104.006C105.37 99.45 106.114 100.315 106.237 101.303L108.841 127.494C109.708 135.771 109.956 138.859 109.956 139.971C109.956 140.959 110.08 141.083 110.452 141.083C110.824 141.083 111.072 140.712 111.072 139.848C111.196 138.118 111.94 131.57 112.56 127.494L116.65 101.797C116.898 100.438 118.014 99.45 119.502 99.45H134.873C136.237 99.45 137.105 100.438 136.857 101.797L124.708 178.022C124.46 179.381 123.345 180.369 121.857 180.369H105.618C104.254 180.369 103.51 179.504 103.386 178.516L100.783 152.325C99.9153 144.048 99.6674 140.959 99.6674 139.848C99.6674 138.859 99.5434 138.736 99.1715 138.736C98.7996 138.736 98.5517 139.106 98.5517 139.971C98.5517 141.701 97.9319 148.372 97.312 152.325Z" fill="white"/>
<path d="M130.287 178.022L142.435 101.797C142.683 100.438 143.799 99.45 145.286 99.45H176.401C177.765 99.45 178.633 100.438 178.385 101.797L176.277 114.645C176.029 116.004 174.914 116.993 173.426 116.993H162.517L160.658 128.853H170.079C171.443 128.853 172.31 129.841 172.063 131.2L169.955 144.048C169.707 145.407 168.592 146.395 167.104 146.395H157.683L155.079 162.455H166.36C167.724 162.455 168.592 163.444 168.344 164.803L166.236 177.651C165.988 179.01 164.873 179.998 163.385 179.998H131.898C130.906 180.369 130.163 179.381 130.287 178.022Z" fill="white"/>
<path d="M170.823 178.022L182.971 101.797C183.219 100.438 184.335 99.45 185.823 99.45H214.706C228.962 99.45 233.177 108.839 230.822 122.923C228.962 134.782 224.128 142.689 215.45 145.036C221.772 147.013 222.888 150.349 223.136 158.008L223.756 173.698C223.88 174.81 224.128 175.427 224.871 175.921C225.739 176.416 226.235 176.786 226.111 178.022C225.863 179.381 224.871 180.245 223.508 180.245H208.632C201.07 180.245 200.079 177.28 200.574 168.88L201.442 152.078C201.566 150.101 200.574 149.607 198.963 149.607H197.971L193.508 177.898C193.26 179.257 192.145 180.245 190.657 180.245H172.93C171.443 180.369 170.575 179.381 170.823 178.022ZM200.079 135.524H201.938C205.533 135.524 206.277 134.288 207.764 125.023C209.252 115.757 208.756 114.522 205.285 114.522H203.426L200.079 135.524Z" fill="white"/>
<path d="M231.07 139.848C236.028 108.345 246.317 98.7087 263.796 98.7087C276.565 98.7087 285.366 105.627 281.895 127.494C281.523 129.717 279.788 130.582 278.3 130.582H264.044C262.309 130.582 261.813 129.223 262.309 126.752C264.044 118.599 264.292 115.881 261.069 115.881C257.35 115.881 257.474 118.599 254.127 139.848C250.78 160.726 249.788 165.297 255.243 165.297C257.97 165.297 260.077 163.691 260.945 158.502L261.193 157.02H258.714C257.35 157.02 256.482 156.031 256.73 154.672L258.714 142.442C258.962 141.083 260.077 140.095 261.565 140.095H277.68C279.044 140.095 279.912 141.083 279.664 142.442L275.325 170.115C274.457 175.304 272.598 176.045 269.747 177.157C265.408 178.763 258.466 181.357 250.78 181.357C233.301 181.11 226.111 171.35 231.07 139.848Z" fill="white"/>
<path d="M288.093 178.022L292.308 151.707L284.374 105.627C284.126 104.515 283.878 103.156 284.126 101.797C284.374 100.315 285.49 99.45 286.978 99.45H304.457C305.944 99.45 306.812 99.9441 306.812 101.55L306.936 118.105C306.936 122.181 306.812 126.629 306.688 127.864C306.564 128.976 306.688 129.347 307.184 129.347C307.68 129.347 308.052 128.976 308.175 127.864C308.423 126.629 309.787 122.058 311.027 118.105L316.481 101.55C316.977 99.9441 317.969 99.45 319.456 99.45H336.935C338.299 99.45 339.167 100.315 338.919 101.797C338.671 103.033 338.051 104.392 337.431 105.627L314.87 151.707L310.655 178.022C310.407 179.381 309.291 180.369 307.804 180.369H290.077C288.713 180.369 287.969 179.381 288.093 178.022Z" fill="white"/>
<path d="M375.364 131.447L366.439 132.682C364.951 132.929 363.712 131.694 363.835 130.335L365.447 101.921C365.571 99.45 362.224 98.5852 361.108 100.809L339.043 146.025C338.299 147.631 339.662 149.484 341.398 149.237L350.323 148.001C351.811 147.754 353.051 148.99 352.927 150.349L351.315 178.763C351.191 181.234 354.538 182.098 355.654 179.875L377.72 134.659C378.587 133.053 377.224 131.2 375.364 131.447Z" fill="white"/>
<path d="M403.752 6.30055C403.752 9.88322 400.901 12.6011 397.306 12.6011C393.711 12.6011 390.86 9.88322 390.86 6.30055C390.86 2.71789 393.711 0 397.306 0C400.901 0 403.752 2.71789 403.752 6.30055ZM402.388 6.30055C402.388 3.33559 400.281 1.2354 397.306 1.2354C394.331 1.2354 392.223 3.33559 392.223 6.30055C392.223 9.26552 394.207 11.3657 397.306 11.3657C400.281 11.4892 402.388 9.26552 402.388 6.30055ZM399.413 7.16534L400.901 10.0068H398.298L397.182 7.53596H396.686V10.0068H394.455V2.59435H397.802C399.413 2.59435 400.653 3.45913 400.653 4.94161C400.653 6.05347 400.157 6.79471 399.413 7.16534ZM397.306 4.32391H396.562V5.80639H397.306C397.926 5.80639 398.174 5.55931 398.174 4.94161C398.174 4.57099 397.802 4.32391 397.306 4.32391Z" fill="white"/>
</g>
<defs>
<clipPath id="clip0_4_281">
<rect width="404" height="201" fill="white"/>
</clipPath>
</defs>
</svg>
