<svg width="61" height="60" viewBox="0 0 61 60" fill="none" xmlns="http://www.w3.org/2000/svg">
<path d="M11.5173 30.1187C11.5173 27.7471 11.3986 25.4942 11.5173 23.1226C11.5173 21.8183 11.7548 20.3953 12.111 19.091C13.1796 15.0594 15.9105 12.8064 19.9475 11.9764C21.3723 11.6206 22.9159 11.5021 24.4594 11.6206C28.7339 11.6206 32.8896 11.6206 37.1641 11.6206C39.3013 11.6206 41.5573 11.9764 43.457 13.1621C46.188 14.7036 47.6128 17.1938 48.2065 20.1582C48.4439 21.6997 48.6814 23.1226 48.5627 24.6641C48.5627 28.6957 48.5627 32.7274 48.5627 36.759C48.5627 38.5376 48.4439 40.3163 47.7315 41.9764C46.3067 45.5337 43.6945 47.5495 40.0137 48.1424C38.4702 48.3795 36.9266 48.4981 35.3831 48.4981C31.3461 48.4981 27.3091 48.6167 23.2721 48.4981C21.3723 48.4981 19.3538 48.261 17.5728 47.4309C14.4857 46.008 12.7047 43.5179 11.9923 40.1977C11.7548 38.7748 11.636 37.3519 11.636 35.8104C11.5173 33.9131 11.5173 32.0159 11.5173 30.1187ZM45.0006 30.1187C45.0006 28.6957 45.0006 27.1542 45.0006 25.7313C45.0006 24.1898 45.0006 22.7669 44.8819 21.2254C44.6444 18.0238 42.6259 15.7708 39.4201 15.2965C37.7578 15.0594 36.0955 15.0594 34.3144 15.0594C30.8711 15.0594 27.3091 14.9408 23.8658 15.0594C22.6784 15.0594 21.6098 15.178 20.4224 15.4151C17.2166 15.8894 15.1981 18.1424 15.0794 21.344C14.9606 25.4942 14.9606 29.5258 14.9606 33.676C14.9606 35.4546 14.9606 37.2333 15.0794 38.8934C15.1981 40.4349 15.7918 41.8578 16.9791 43.0436C18.4039 44.3479 20.0662 44.9408 21.966 44.9408C25.8843 44.9408 29.8025 44.9408 33.8395 44.9408C35.5018 44.9408 37.0454 44.9408 38.7076 44.8222C42.3884 44.5851 45.0006 41.7392 45.0006 38.0633C45.0006 35.4546 45.0006 32.7274 45.0006 30.1187Z" fill="white"/>
<path d="M20.5413 30.0003C20.5413 24.7829 24.697 20.5142 30.0401 20.5142C35.3831 20.5142 39.5389 24.6644 39.5389 30.0003C39.5389 35.2177 35.3831 39.4865 30.0401 39.4865C24.8157 39.4865 20.5413 35.3363 20.5413 30.0003ZM23.9846 30.0003C23.9846 33.4391 26.5967 36.1663 30.0401 36.1663C33.4834 36.1663 36.0956 33.4391 36.0956 30.1189C36.0956 26.6802 33.3646 23.9529 30.0401 23.9529C26.7155 23.9529 23.9846 26.5616 23.9846 30.0003Z" fill="white"/>
<path d="M42.151 20.1581C42.151 21.4624 41.2011 22.411 39.8951 22.411C38.7077 22.411 37.6391 21.3438 37.7578 20.1581C37.7578 18.9723 38.7077 18.0237 40.0138 18.0237C41.2011 17.9051 42.151 18.8537 42.151 20.1581Z" fill="white"/>
<path d="M30.04 4.86166C43.932 4.86166 55.2118 16.1265 55.2118 30C55.2118 43.8735 43.932 55.1383 30.04 55.1383C16.148 55.1383 4.86814 43.8735 4.86814 30C4.86814 16.1265 16.148 4.86166 30.04 4.86166ZM30.04 0C13.4171 0 0 13.3992 0 30C0 46.6008 13.4171 60 30.04 60C46.6629 60 60.0799 46.6008 60.0799 30C60.0799 13.3992 46.6629 0 30.04 0Z" fill="white"/>
</svg>
