<svg width="420" height="49" viewBox="0 0 420 49" fill="none" xmlns="http://www.w3.org/2000/svg">
<path d="M0.900017 24.1C3.80002 5.7 9.80002 0 20.1 0C27.6 0 32.7 4.1 30.7 16.9C30.5 18.2 29.5 18.7 28.6 18.7H20.3C19.3 18.7 19 17.9 19.3 16.5C20.3 11.7 20.5 10.1 18.6 10.1C16.5 10.1 16.5 11.7 14.5 24.2C12.5 36.7 12 38.3 14.1 38.3C16 38.3 16.3 36.7 16.8 31.9C16.9 30.5 17.4 29.7 18.5 29.7H26.8C27.8 29.7 28.6 30.2 28.4 31.5C26.4 44.3 19.9 48.4 12.5 48.4C2.20002 48.4 -1.99998 42.6 0.900017 24.1Z" fill="white"/>
<path d="M28.5 46.5L35.6 1.79999C35.7 0.999994 36.4 0.399994 37.2 0.399994H47.6C48.4 0.399994 48.9 0.999994 48.8 1.79999L46.3 17.6H49.9L52.4 1.79999C52.5 0.999994 53.2 0.399994 54 0.399994H64.4C65.2 0.399994 65.7 0.999994 65.6 1.79999L58.5 46.5C58.4 47.3 57.7 47.9 56.9 47.9H46.5C45.7 47.9 45.2 47.3 45.3 46.5L48.2 28.1H44.6L41.7 46.5C41.6 47.3 40.9 47.9 40.1 47.9H29.7C28.9 47.9 28.4 47.3 28.5 46.5Z" fill="white"/>
<path d="M62 46.5L69.1 1.79999C69.2 0.999994 69.9 0.399994 70.7 0.399994H81.1C81.9 0.399994 82.4 0.999994 82.3 1.79999L75.2 46.5C75.1 47.3 74.4 47.9 73.6 47.9H63.2C62.4 47.9 61.9 47.3 62 46.5Z" fill="white"/>
<path d="M78.8 46.5L85.9 1.79999C86 0.999994 86.6 0.399994 87.5 0.399994H97.9C98.7 0.399994 99.2 0.999994 99.1 1.79999L93.4 37.5H98.4C99.2 37.5 99.7 38.1 99.6 38.9L98.4 46.5C98.3 47.3 97.6 47.9 96.8 47.9H80C79.1 47.9 78.6 47.3 78.8 46.5Z" fill="white"/>
<path d="M101.3 46.5L108.4 1.79999C108.5 0.999994 109.2 0.399994 110 0.399994H123.9C131.8 0.399994 137.8 4.49999 134.7 24C131.6 43.6 124.3 47.8 116.3 47.8H102.4C101.7 47.9 101.2 47.3 101.3 46.5ZM116.9 38.3C119 38.3 119.4 37.7 121.6 24.1C123.7 10.9 123.4 10.1 121.4 10.1H120.3L115.8 38.3H116.9Z" fill="white"/>
<path d="M134 46.5L141.1 1.79999C141.2 0.999994 141.9 0.399994 142.7 0.399994H153.1C153.9 0.399994 154.4 0.999994 154.3 1.79999L147.2 46.5C147.1 47.3 146.4 47.9 145.6 47.9H135.2C134.4 47.9 133.9 47.3 134 46.5Z" fill="white"/>
<path d="M152.6 31.5C152.8 30.2 153.8 29.7 154.7 29.7H162.6C163.6 29.7 163.9 30.1 163.7 31.5C162.5 37.4 162.8 38.3 164.3 38.3C166.2 38.3 166.3 37.3 167 32.9C167.4 30.4 166.6 28.5 162.7 27.1C155.7 24.5 154.5 19.5 155.3 14.3C157.1 3 163.4 0 171.4 0C180.4 0 183.1 5.4 181.4 15.8C181.2 17.1 180.2 17.6 179.3 17.6H171.4C170.4 17.6 170 17.3 170.3 16.2C171.5 11 171.1 10.1 169.6 10.1C167.7 10.1 167.6 11.2 167.1 14.5C166.8 16.6 167.5 18.8 171.5 20.2C178.7 22.8 179.8 27.1 178.9 33C176.8 46 170.6 48.4 162.6 48.4C153.5 48.4 150.7 43.2 152.6 31.5Z" fill="white"/>
<path d="M179.6 46.5L186.7 1.79999C186.8 0.999994 187.5 0.399994 188.3 0.399994H198.7C199.5 0.399994 200 0.999994 199.9 1.79999L197.4 17.6H201L203.5 1.79999C203.6 0.999994 204.3 0.399994 205.1 0.399994H215.5C216.3 0.399994 216.8 0.999994 216.7 1.79999L209.6 46.5C209.5 47.3 208.8 47.9 208 47.9H197.6C196.8 47.9 196.3 47.3 196.4 46.5L199.3 28.1H195.7L192.8 46.5C192.7 47.3 192 47.9 191.2 47.9H180.8C180 47.9 179.5 47.3 179.6 46.5Z" fill="white"/>
<path d="M218.2 46.5L225.3 1.79999C225.4 0.999994 226.1 0.399994 226.9 0.399994H245C245.8 0.399994 246.3 0.999994 246.2 1.79999L245 9.39999C244.9 10.2 244.2 10.8 243.4 10.8H237L235.9 17.8H241.4C242.2 17.8 242.7 18.4 242.6 19.2L241.4 26.8C241.3 27.6 240.6 28.2 239.8 28.2H234.3L232.8 37.6H239.4C240.2 37.6 240.7 38.2 240.6 39L239.4 46.6C239.3 47.4 238.6 48 237.8 48H219.4C218.5 47.9 218.1 47.3 218.2 46.5Z" fill="white"/>
<path d="M256 31.5L253.6 46.5C253.5 47.3 252.8 47.9 252 47.9H243C242.2 47.9 241.7 47.3 241.8 46.5L248.9 1.79999C249 0.999994 249.7 0.399994 250.5 0.399994H259.8C260.6 0.399994 261.1 0.899994 261.1 1.49999L262.6 16.8C263.1 21.7 263.2 23.5 263.2 24.1C263.2 24.7 263.2 24.8 263.5 24.8C263.7 24.8 263.8 24.6 263.8 24.1C263.9 23.1 264.3 19.2 264.7 16.8L267.1 1.79999C267.2 0.999994 267.9 0.399994 268.7 0.399994H277.7C278.5 0.399994 279 0.999994 278.9 1.79999L271.8 46.5C271.7 47.3 271 47.9 270.2 47.9H260.9C260.1 47.9 259.6 47.4 259.6 46.8L258 31.5C257.5 26.6 257.4 24.8 257.4 24.2C257.4 23.6 257.4 23.5 257.1 23.5C256.9 23.5 256.8 23.7 256.8 24.2C256.7 25.3 256.3 29.1 256 31.5Z" fill="white"/>
<path d="M275.3 46.5L282.4 1.79999C282.5 0.999994 283.2 0.399994 284 0.399994H302.1C302.9 0.399994 303.4 0.999994 303.3 1.79999L302.1 9.39999C302 10.2 301.3 10.8 300.5 10.8H294.1L293 17.8H298.5C299.3 17.8 299.8 18.4 299.7 19.2L298.5 26.8C298.4 27.6 297.7 28.2 296.9 28.2H291.4L289.9 37.6H296.5C297.3 37.6 297.8 38.2 297.7 39L296.5 46.6C296.4 47.4 295.7 48 294.9 48H276.5C275.6 47.9 275.1 47.3 275.3 46.5Z" fill="white"/>
<path d="M298.9 46.5L306 1.9C306.1 1.1 306.8 0.5 307.6 0.5H324.5C332.8 0.5 335.3 6 333.9 14.3C332.8 21.3 330 25.9 324.9 27.3C328.6 28.5 329.2 30.4 329.4 34.9L329.8 44.1C329.8 44.8 330 45.1 330.5 45.4C331 45.7 331.3 45.9 331.2 46.7C331.1 47.5 330.5 48 329.7 48H321C316.6 48 316 46.3 316.3 41.3L316.8 31.5C316.8 30.3 316.3 30 315.3 30H314.7L312.1 46.6C312 47.4 311.3 48 310.5 48H300.1C299.3 47.9 298.8 47.3 298.9 46.5ZM316 21.6H317.1C319.2 21.6 319.7 20.9 320.5 15.5C321.4 10.1 321.1 9.4 319 9.4H317.9L316 21.6Z" fill="white"/>
<path d="M334.1 24.1C337.1 5.7 343.1 0 353.3 0C360.8 0 365.9 4.1 363.9 16.9C363.7 18.2 362.7 18.7 361.8 18.7H353.5C352.5 18.7 352.2 17.9 352.5 16.5C353.5 11.7 353.7 10.1 351.8 10.1C349.7 10.1 349.7 11.7 347.7 24.2C345.8 36.4 345.2 39.1 348.4 39.1C350 39.1 351.2 38.1 351.7 35.1L351.8 34.2H350.3C349.5 34.2 349 33.6 349.1 32.8L350.2 25.6C350.3 24.8 351 24.2 351.8 24.2H361.2C362 24.2 362.5 24.8 362.4 25.6L359.8 41.8C359.3 44.8 358.2 45.3 356.6 45.9C354.1 46.9 350 48.3 345.5 48.3C335.4 48.4 331.2 42.6 334.1 24.1Z" fill="white"/>
<path d="M367.5 46.5L369.9 31.1L365.3 4.1C365.2 3.4 365 2.6 365.1 1.9C365.2 1 365.9 0.5 366.7 0.5H376.9C377.8 0.5 378.3 0.8 378.3 1.8L378.4 11.5C378.4 13.9 378.4 16.5 378.2 17.2C378.1 17.9 378.2 18.1 378.5 18.1C378.8 18.1 379 17.9 379.1 17.2C379.2 16.5 380 13.8 380.7 11.5L383.9 1.8C384.2 0.8 384.8 0.5 385.7 0.5H395.9C396.7 0.5 397.2 1 397.1 1.9C397 2.6 396.6 3.5 396.2 4.1L383 31.1L380.6 46.5C380.5 47.3 379.8 47.9 379 47.9H368.6C367.8 47.9 367.3 47.3 367.5 46.5Z" fill="white"/>
<path d="M418.5 19.2L413.3 19.9C412.5 20 411.7 19.3 411.8 18.5L412.8 1.8C412.9 0.299995 410.9 -0.200005 410.3 1.1L397.4 27.6C396.9 28.6 397.7 29.7 398.8 29.5L404 28.8C404.8 28.7 405.6 29.4 405.5 30.2L404.5 46.9C404.4 48.4 406.4 48.9 407 47.6L419.9 21.1C420.3 20.1 419.5 19.1 418.5 19.2Z" fill="white"/>
</svg>
