<svg width="145" height="145" viewBox="0 0 145 145" fill="none" xmlns="http://www.w3.org/2000/svg">
<g clip-path="url(#clip0_2_5081)">
<path d="M93.2676 141.97C131.631 130.498 153.43 90.0995 141.959 51.7365C130.487 13.3736 90.088 -8.42612 51.7251 3.04552C13.3621 14.5172 -8.43758 54.9161 3.03407 93.279C14.5057 131.642 54.9046 153.442 93.2676 141.97Z" fill="white"/>
<path d="M67.975 54.6013L71.8966 67.6734L65.1595 69.6845L66.5672 74.31L48.6685 79.6394L47.2607 75.0139L24.1331 81.8516L20.7142 70.2878L35.0936 42.5347L55.3051 36.5014L61.2378 56.6124L67.975 54.6013ZM36.3002 64.0534L43.3391 61.9418L41.2274 54.7018L36.3002 64.0534Z" fill="black"/>
<path d="M66.7683 54.7018L66.165 52.7913C62.9472 41.8308 67.975 31.5742 84.2649 26.7476C100.655 21.9209 110.51 27.7531 113.727 38.7136L114.331 40.6241C117.548 51.5846 112.521 61.8412 96.1303 66.6678C79.8404 71.4945 69.9861 65.6623 66.7683 54.7018ZM95.4264 45.3502L95.3259 44.948C94.4209 42.0319 92.2087 40.7247 88.8904 41.7302C85.4715 42.7358 84.3654 45.0485 85.1698 47.9646L85.2704 48.3668C86.1754 51.2829 88.3876 52.5902 91.7059 51.5846C95.1248 50.5791 96.2309 48.2663 95.4264 45.3502Z" fill="black"/>
<path d="M32.8814 106.488L33.4847 108.599C33.9875 110.107 34.2892 110.409 34.7919 110.309C35.2947 110.208 35.2947 109.605 34.993 108.599C34.3897 106.689 34.0881 106.186 31.2725 104.678C27.552 102.666 25.742 101.56 24.6359 97.8398C23.4292 93.7171 23.932 90.1977 28.457 88.7899C33.4847 87.2816 35.3953 90.3988 36.4008 93.8176L36.9036 95.4265L31.9764 96.9348L31.3731 95.0243C30.9709 93.7171 30.6692 93.4154 30.1664 93.6165C29.7642 93.7171 29.5631 94.2198 29.9653 95.3259C30.3675 96.6332 30.7697 97.1359 32.9819 98.3426C37.1047 100.454 39.1158 101.661 40.3224 105.683C41.7302 110.309 41.2274 113.727 36.3003 115.135C31.8758 116.442 29.362 114.331 27.9542 109.806L27.4514 108.298L32.8814 106.488Z" fill="black"/>
<path d="M50.579 98.4432L46.2552 99.7504L47.9646 105.683L53.1934 104.175L53.9979 109.404L43.8418 112.42L36.3002 86.8794L46.4563 83.8627L47.9646 88.8905L43.4396 90.1977L44.7468 94.7226L49.0707 93.4154L50.579 98.4432Z" fill="black"/>
<path d="M58.2212 96.3315L61.439 107.091L55.8079 108.8L48.2663 83.2594L55.2046 81.1477C59.8301 79.74 62.0423 81.8516 63.249 85.8738L63.5506 86.7788C64.3551 89.6949 63.9528 91.4043 62.8467 92.5104C64.7573 92.8121 65.6623 94.1193 66.7684 97.8398C67.6734 100.856 68.4778 103.873 68.88 104.778L63.4501 106.387C63.0478 105.985 62.4445 104.275 60.7351 98.4431C60.0312 95.9293 59.7295 95.8287 58.6234 96.1304L58.2212 96.3315ZM56.914 91.8065L57.3162 91.706C58.2212 91.4043 58.5229 91.0021 58.0201 89.3932L57.4168 87.3821C57.0146 85.9744 56.6123 85.7732 55.5062 86.0749H55.3051L56.914 91.8065Z" fill="black"/>
<path d="M72.1983 103.873L62.1428 79.1366L67.975 77.4272L70.69 85.5721C71.6955 88.5888 73.2039 92.8121 74.31 96.4321L74.7122 96.3315C73.5055 92.3093 72.7011 88.6893 71.6955 85.2705L69.3828 77.025L75.0138 75.3156L80.0416 101.56L72.1983 103.873Z" fill="black"/>
<path d="M81.8516 73.3044L89.3932 98.8454L83.7621 100.555L76.2205 75.0139L81.8516 73.3044Z" fill="black"/>
<path d="M91.3037 98.1415L83.7621 72.6006L89.5943 70.8911C91.002 73.5056 95.7281 83.0583 96.2309 84.0638L96.432 83.9633C94.8231 80.0416 92.4098 73.6061 91.7059 71.1928L91.5048 70.3884L96.8342 68.7795L104.376 94.3204L98.0409 96.2309C97.1359 94.1193 91.907 82.8571 91.6054 82.0527L91.3037 82.1533C92.3092 84.9688 95.2253 93.2143 96.1303 96.1304L96.3314 96.7337L91.3037 98.1415Z" fill="black"/>
<path d="M119.157 89.896L115.135 91.1026C114.934 90.7004 114.532 89.6949 114.331 89.1921C114.029 91.5049 112.42 92.3093 111.012 92.7115C107.091 93.9182 105.281 90.801 104.175 87.0805L100.454 74.6117C99.4487 71.1928 99.9515 67.4723 104.879 65.964C110.711 64.2545 112.822 68.4778 113.526 70.9917L114.029 72.6006L108.298 74.31L107.694 72.3995C107.292 71.0922 107.091 70.4889 106.286 70.69C105.583 70.8911 105.583 71.4945 105.985 72.9022L109.906 86.0749C110.309 87.4827 110.811 87.4827 111.214 87.3821C111.716 87.181 112.018 86.7788 111.515 85.2705L110.409 81.5499L109.504 81.8516L107.996 76.8239L114.632 74.9133L119.157 89.896Z" fill="black"/>
<path d="M123.481 79.5389L124.085 81.6505C124.587 83.1588 124.889 83.4605 125.392 83.3599C125.895 83.2594 125.895 82.6561 125.593 81.6505C124.99 79.74 124.688 79.2372 121.872 77.7289C118.152 75.7178 116.342 74.6117 115.236 70.8911C114.029 66.7684 114.532 63.249 119.057 61.8412C124.085 60.3329 125.995 63.4501 127.001 66.869L127.503 68.4778L122.576 69.9862L121.973 68.0756C121.571 66.7684 121.269 66.4667 120.766 66.6678C120.364 66.7684 120.163 67.2712 120.565 68.3773C120.967 69.6845 121.37 70.1873 123.582 71.3939C127.705 73.5056 129.716 74.7122 130.922 78.7344C132.33 83.3599 131.827 86.7788 126.9 88.1866C122.476 89.4938 119.962 87.3821 118.554 82.8572L118.051 81.3488L123.481 79.5389Z" fill="black"/>
<path d="M142.084 51.8862C130.621 13.5749 90.1976 -8.34608 51.8862 3.01661C13.5749 14.3793 -8.34608 54.9029 3.01661 93.2142C14.3793 131.526 54.9029 153.447 93.2142 142.084C131.526 130.621 153.447 90.1976 142.084 51.8862ZM90.5998 133.336C57.1151 143.291 21.7198 124.085 11.7649 90.5998C1.80995 57.1151 21.0159 21.7198 54.5007 11.7649C87.9854 1.80995 123.381 21.0159 133.336 54.5007C143.291 87.9854 124.085 123.381 90.5998 133.336Z" fill="black"/>
</g>
<defs>
<clipPath id="clip0_2_5081">
<rect width="145" height="145" fill="white"/>
</clipPath>
</defs>
</svg>
