<svg width="61" height="60" viewBox="0 0 61 60" fill="none" xmlns="http://www.w3.org/2000/svg">
<path d="M50.9075 20.9882C50.0764 21.9369 49.2452 22.8855 48.2953 23.7155C47.4642 24.3084 47.2267 25.0199 47.2267 26.0871C46.8705 34.3874 43.1897 40.9092 35.8281 45.0594C32.3848 47.0752 28.5853 47.6681 24.6671 47.6681C20.8675 47.5495 17.4242 46.6009 14.0996 44.7037C13.9809 44.5851 13.8622 44.5851 13.6247 44.3479C17.8992 44.7037 21.4612 43.6365 24.9045 41.1463C21.3425 40.7906 18.9678 39.1305 17.7804 35.9289C18.849 35.9289 19.9177 35.8104 20.9863 35.8104C20.9863 35.6918 20.9863 35.6918 20.9863 35.5732C17.3055 34.3874 15.287 32.0159 14.9308 28.1029C15.9994 28.34 16.9493 28.5772 17.8992 28.8143C18.0179 28.8143 18.1366 28.8143 18.3741 28.8143C16.2369 27.2728 15.1683 25.257 14.9308 22.7669C14.8121 21.344 15.1683 19.6839 15.9994 18.4981C18.0179 20.8697 20.3926 22.7669 23.1235 24.1898C25.8544 25.6127 28.8228 26.3242 31.7912 26.5614C31.7912 25.8499 31.7912 25.1384 31.7912 24.427C31.9099 20.3954 35.2345 17.1938 39.1527 17.0752C41.29 17.0752 43.1897 17.7867 44.852 19.2096C44.9708 19.3282 45.327 19.4467 45.4457 19.3282C46.7518 18.8539 48.0579 18.3795 49.364 17.9052C49.4827 17.7867 49.7202 17.7867 49.9576 17.6681C49.364 19.4467 48.2953 20.7511 46.8705 21.8183C47.3455 21.6997 47.7017 21.6997 48.1766 21.5811C48.6516 21.4625 49.1265 21.344 49.4827 21.2254C49.9576 21.1068 50.3138 20.9882 50.7888 20.7511C50.7888 20.8697 50.9075 20.9882 50.9075 20.9882Z" fill="white"/>
<path d="M30.96 4.86166C44.852 4.86166 56.1319 16.1265 56.1319 30C56.1319 43.8735 44.852 55.1383 30.96 55.1383C17.068 55.1383 5.78818 43.8735 5.78818 30C5.78818 16.1265 17.068 4.86166 30.96 4.86166ZM30.96 0C14.3371 0 0.920044 13.3992 0.920044 30C0.920044 46.6008 14.3371 60 30.96 60C47.5829 60 61 46.6008 61 30C61 13.3992 47.5829 0 30.96 0Z" fill="white"/>
</svg>
